<?xml version="1.0" ?><!DOCTYPE svg  PUBLIC '-//W3C//DTD SVG 1.1//EN'  'http://www.w3.org/Graphics/SVG/1.1/DTD/svg11.dtd'><svg height="100%" style="fill-rule:evenodd;clip-rule:evenodd;stroke-miterlimit:10;" version="1.1" viewBox="0 0 466 399" width="100%" xml:space="preserve" xmlns="http://www.w3.org/2000/svg" xmlns:serif="http://www.serif.com/" xmlns:xlink="http://www.w3.org/1999/xlink"><rect height="398.005" id="_26.-Website-builder" style="fill:none;" width="465.509" x="0.478" y="0.624"/><clipPath id="_clip1"><rect height="398.005" width="465.509" x="0.478" y="0.624"/></clipPath><g clip-path="url(#_clip1)"><g id="Group-2"><path d="M467.516,140.909c0,-8.279 -6.722,-15 -15,-15l-281.8,0c-8.279,0 -15,6.721 -15,15l0,218.226c0,8.278 6.721,15 15,15l281.8,0c8.278,0 15,-6.722 15,-15l0,-218.226Z" id="Rounded-Rectangle-1-copy" style="fill:#cce6ff;fill-opacity:0.160784;"/><path d="M451.943,126.065c0,-8.279 -6.721,-15 -15,-15l-278.47,0c-8.279,0 -15,6.721 -15,15l0,215.52c0,8.279 6.721,15 15,15l278.47,0c8.279,0 15,-6.721 15,-15l0,-215.52Z" id="Rounded-Rectangle-1" style="fill:url(#_Linear2);"/><path d="M158.097,158.194l275.859,0l0,173.532c0,5.298 -4.295,9.593 -9.593,9.593l-253.075,0c-7.285,0 -13.191,-5.906 -13.191,-13.191l0,-169.934Z" id="Rounded-Rectangle-2" style="fill:url(#_Linear3);"/><clipPath id="_clip4"><path d="M158.097,158.194l275.859,0l0,173.532c0,5.298 -4.295,9.593 -9.593,9.593l-253.075,0c-7.285,0 -13.191,-5.906 -13.191,-13.191l0,-169.934Z" id="Rounded-Rectangle-21"/></clipPath><g clip-path="url(#_clip4)"><rect height="40.963" id="Rectangle-1" style="fill:#0bbc00;" width="35.864" x="172.38" y="170.732"/><rect height="38.157" id="Rectangle-2" style="fill:#e5f1ff;" width="81.748" x="341.244" y="174.076"/><rect height="46.614" id="Rectangle-2-copy" style="fill:#e5f1ff;" width="71.031" x="173.82" y="283.196"/><rect height="46.886" id="Rectangle-2-copy-2" style="fill:url(#_Linear5);" width="55.364" x="367.628" y="281.191"/><rect height="13.7" id="Rectangle-3" style="fill:#e5f1ff;" width="61.458" x="263.753" y="227.252"/></g><circle cx="194.543" cy="133.66" id="Ellipse-1" r="7.856" style="fill:#0084ff;"/><circle cx="171.93" cy="133.66" id="Ellipse-1-copy" r="7.856" style="fill:#55d7ff;"/><circle cx="217.087" cy="133.66" id="Ellipse-1-copy-2" r="7.856" style="fill:#0bbc00;"/><path d="M385.976,132.409c0,-3.588 -2.913,-6.5 -6.5,-6.5l-76.933,0c-3.587,0 -6.5,2.912 -6.5,6.5l0,2.607c0,3.588 2.913,6.5 6.5,6.5l76.933,0c3.587,0 6.5,-2.912 6.5,-6.5l0,-2.607Z" id="Rounded-Rectangle-3" style="fill:#e5f1ff;"/><path d="M435.919,132.353c0,-3.614 -2.934,-6.548 -6.548,-6.548l-11.459,0c-3.614,0 -6.548,2.934 -6.548,6.548l0,2.615c0,3.614 2.934,6.548 6.548,6.548l11.459,0c3.614,0 6.548,-2.934 6.548,-6.548l0,-2.615Z" id="Rounded-Rectangle-3-copy-2" style="fill:#e5f1ff;"/></g><path d="M66.953,344.063l0,1.654l-18.482,29.929l-8.8,0l14.081,-58.977l13.201,-2.617l0,24.517l44.931,0l0,-22.885l9.758,-4.418l6.508,17.907l11.265,46.502l-8.881,0l-18.65,-29.766l0,-1.846l-44.931,0Z" id="Shape-5-copy" style="fill:#cce6ff;fill-opacity:0.521569;"/><path d="M75.043,25.71l19.978,0l17.757,48.672l0,224.352l-37.735,0l0,-273.024Z" id="Rectangle-5" style="fill:#cce6ff;fill-opacity:0.521569;"/><rect height="19.977" id="Rectangle-5-copy" style="fill:#cce6ff;fill-opacity:0.34902;" width="264.145" x="33.979" y="83.422"/><rect height="65.932" id="Rectangle-2-copy-3" style="fill:none;stroke:#cce6ff;stroke-width:6px;" width="99.367" x="242.255" y="239.149"/><path d="M361.927,240.05l0,82.703l-123.357,0l0,-81.029l61.167,-127.9c20.73,42.076 41.46,84.151 62.19,126.226Zm-117.357,3.035l0,73.668l111.357,0l0,-75.305l-56.109,-113.885c-18.416,38.507 -36.832,77.015 -55.248,115.522Z" style="fill:#cce6ff;fill-rule:nonzero;"/><path d="M40.471,372.646l-8.8,0l14.081,-58.977l13.201,2.64l0,19.26l44.931,0l0,-18.923l13.322,-2.627l14.209,58.656l-8.881,0l-18.65,-29.766l0,-1.847l-44.931,0l0,1.655l-18.482,29.929Z" id="Shape-5" style="fill:#cce6ff;"/><rect height="67.701" id="Rectangle-21" style="fill:#0084ff;" width="102.107" x="235.324" y="228.044"/><path d="M65.209,20.447l-36.963,55.456l-4.992,-3.328l36.963,-55.456c1.664,1.109 3.328,2.218 4.992,3.328Z" style="fill:#cce6ff;fill-rule:nonzero;"/><path d="M279.02,79.442l-1.747,5.74l-194.312,-59.128l1.747,-5.74c64.771,19.71 129.541,39.419 194.312,59.128Z" style="fill:#cce6ff;fill-rule:nonzero;"/><path d="M350.173,225.554l0,86.449l-127.88,0l0,-84.693l63.412,-133.773c21.489,44.006 42.979,88.012 64.468,132.017Zm-121.88,3.106l0,77.343l115.88,0l0,-79.062l-58.388,-119.566c-19.164,40.428 -38.328,80.857 -57.492,121.285Z" style="fill:#55d7ff;fill-rule:nonzero;"/><path d="M65.662,86.078c0.612,0.147 1.167,0.428 1.652,0.842l35.203,35.211c1.989,2.33 1.171,2.87 0,4.242l-31.322,31.328l30.442,30.449c0,0 1.768,2.171 0,4.242l-30.442,30.448l29.562,29.569c0,0 1.768,2.171 0,4.242l-32.563,32.569c-1.765,1.508 -5.121,0.641 -5.121,-2.121c0,-0.78 0.348,-1.5 0.878,-2.121l30.442,-30.448l-29.562,-29.568c0,0 -1.768,-2.172 0,-4.243l30.442,-30.448l-30.442,-30.448c0,0 -1.768,-2.172 0,-4.243l31.322,-31.328l-33.082,-33.089c0,0 -1.049,-1.279 -0.841,-2.591c0.241,-1.524 1.655,-2.634 3.432,-2.494Z" style="fill:#55d7ff;fill-rule:nonzero;"/><path d="M104.273,93.264l-33.257,33.121l31.487,31.36c0.889,1.036 0.775,1.206 0.846,1.655c0.136,0.855 0.161,1.421 -0.846,2.596l-30.602,30.478l30.602,30.478c0,0 1.777,2.178 0,4.251l-29.717,29.597l30.602,30.478l-4.234,4.251l-32.736,-32.603c0,0 -1.778,-2.178 0,-4.251l29.717,-29.597l-30.602,-30.479c0,0 -1.777,-2.178 0,-4.251l30.602,-30.478l-31.487,-31.359c0,0 -1.777,-2.178 0,-4.251l35.391,-35.248c1.411,1.418 2.822,2.835 4.234,4.252Z" style="fill:#55d7ff;fill-rule:nonzero;"/><rect height="256.376" id="Rectangle-6" style="fill:#fff;fill-opacity:0.501961;" width="11.099" x="71.714" y="24.6"/><path d="M86.475,24.064l17.424,50.479l1.937,216.239l-45.763,0l0,-277.281l25.522,0c0.293,3.521 0.586,7.042 0.88,10.563Zm-17.402,-1.563l0,259.281l27.682,0l-1.842,-205.69l-17.314,-50.157l-0.286,-3.434c-2.747,0 -5.493,0 -8.24,0Z" style="fill:#cce6ff;fill-rule:nonzero;"/><path d="M282.586,74.543l18.626,21.702l-277.222,0l0,-22.006c86.199,0.101 172.397,0.203 258.596,0.304Zm-249.596,12.702l248.637,0l-3.181,-3.706l-245.456,-0.289c0,1.331 0,2.663 0,3.995Z" style="fill:#cce6ff;fill-rule:nonzero;"/><path d="M122.559,286.849c0,-2.207 -1.792,-4 -4,-4l-76.621,0c-1.655,0 -3,1.344 -3,3l0,22.336c0,4.968 4.033,9 9,9l65.621,0c4.967,0 9,-4.032 9,-9l0,-21.336Z" id="Rounded-Rectangle-5" style="fill:#cce6ff;"/><path d="M114.244,291.576c0,-1.379 -1.121,-2.5 -2.5,-2.5l-62,0c-1.38,0 -2.5,1.121 -2.5,2.5l0,12c0,3.036 2.464,5.5 5.5,5.5l56,0c3.035,0 5.5,-2.464 5.5,-5.5l0,-12Z" id="Rounded-Rectangle-8-copy" style="fill:#fff;fill-opacity:0.490196;"/></g><defs><linearGradient gradientTransform="matrix(1.95132e-14,318.675,-318.675,1.95132e-14,444.614,197.705)" gradientUnits="userSpaceOnUse" id="_Linear2" x1="0" x2="1" y1="0" y2="0"><stop offset="0" style="stop-color:#cce6ff;stop-opacity:1"/><stop offset="1" style="stop-color:#1d98ff;stop-opacity:1"/></linearGradient><linearGradient gradientTransform="matrix(1.20348e-14,196.543,-196.543,1.20348e-14,426.588,282.248)" gradientUnits="userSpaceOnUse" id="_Linear3" x1="0" x2="1" y1="0" y2="0"><stop offset="0" style="stop-color:#fff;stop-opacity:1"/><stop offset="1" style="stop-color:#d0e4fc;stop-opacity:1"/></linearGradient><linearGradient gradientTransform="matrix(4.70569e-15,-76.8497,76.8497,4.70569e-15,394.109,323.038)" gradientUnits="userSpaceOnUse" id="_Linear5" x1="0" x2="1" y1="0" y2="0"><stop offset="0" style="stop-color:#0bbc00;stop-opacity:1"/><stop offset="1" style="stop-color:#79df68;stop-opacity:1"/></linearGradient></defs></svg>