<?xml version="1.0" ?><svg id="Layer_1" style="enable-background:new 0 0 512 512;" version="1.1" viewBox="0 0 512 512" xml:space="preserve" xmlns="http://www.w3.org/2000/svg" xmlns:xlink="http://www.w3.org/1999/xlink"><style type="text/css">
	.st0{opacity:0.34;fill:#575FA8;}
	.st1{fill:#F08789;}
	.st2{fill:#32388D;}
	.st3{opacity:0.2;fill:#020203;}
	.st4{fill:#F5ABAE;}
	.st5{fill:#FFFFFF;}
	.st6{fill:#212226;}
	.st7{fill:#444496;}
	.st8{fill:#A77071;}
	.st9{fill:#59BCAB;}
	.st10{fill:#FCC450;}
	.st11{fill:#345185;}
	.st12{fill:#C1E4EE;}
	.st13{fill:#4FBECB;}
	.st14{fill:#E2E2E1;}
	.st15{fill:#E6F2EA;}
	.st16{fill:#D2EBF7;}
	.st17{fill:#A9DAE5;}
	.st18{fill:#EDF6F4;}
	.st19{fill:#D2E8F2;}
	.st20{fill:#ACD8C8;}
	.st21{opacity:0.5;fill:#96CEB8;}
	.st22{fill:#9FD2BA;}
	.st23{fill:#7CC39E;}
	.st24{fill:#EFF4F4;}
	.st25{fill:#C1D6CF;}
	.st26{fill:#98D5E9;}
	.st27{fill:#F8FCFA;}
	.st28{fill:#FFE1AB;}
	.st29{opacity:0.3;fill:#F6FBFD;}
	.st30{opacity:0.3;fill:#385F82;}
	.st31{fill:#5BB98E;}
	.st32{fill:#D5EAE4;}
	.st33{opacity:0.5;fill:#FFE1AB;}
	.st34{opacity:0.7;}
</style><g><g><ellipse class="st0" cx="79.1" cy="462.5" rx="73.1" ry="14.3"/><g><path class="st1" d="M87.1,436.7l-1.5,24.4h43.6c0,0-17.8-11.9-25.7-15.7l-0.9-8.6H87.1z"/><path class="st2" d="M100.6,243.1l2.9,200.2H86.3c0,0-19-78.4-9.7-101.3l-16.6-98.9H100.6z"/><path class="st3" d="M100.6,243.1H60.1l16.6,98.9c-3.2,7.9-3.1,22.5-1.5,38.2l27.9,34.1L100.6,243.1z"/><path class="st1" d="M41.1,439.9l-6.7,24.4H82c0,0-20.1-11.9-28.1-15.7l1.5-8.6H41.1z"/><path class="st2" d="M101.8,240.6L84.9,341L56.4,443.3H39.3c0,0,5.5-98.2,23.1-108.4l-13.9-94.2H101.8z"/><polygon class="st3" points="100.7,247.5 101.8,240.6 48.5,240.6 49.7,248.8 100.8,255.3    "/><path class="st4" d="M129.3,171.3c0,0,10.6-17.1,27.1-21l-6.5,7.8c0,0,3.1,8.1-0.8,12.2c-3.9,4.1-10.2,4.4-10.2,4.4l-4.4,4.9     L129.3,171.3z"/><path class="st5" d="M87.4,157.3l14.5,29.6l28.4-19.2l7.1,10.9c0,0-24.7,46.4-35.6,43c-10.9-3.4-20.3-27.9-20.3-27.9L87.4,157.3z     "/><path class="st3" d="M101.8,186.9l-14.5-29.6l-5.8,36.4c0,0,9.4,24.5,20.3,27.9c0.3,0.1,0.5,0.1,0.8,0.1l13.1-44.3L101.8,186.9z"/><path class="st4" d="M98.4,87.4c0,0,1.7,15.1,3.4,18.8h-4.7c0,0,0.4,14.5-2.6,16.3c-2.1,1.3-8.2,0-9.6,1.7     c-1.4,1.7-3.5,13.8-3.5,13.8l-18.9-1.6l1.9-16.9c0,0-10.6-12.7-7.4-28.3C60.2,75.6,95.6,72.9,98.4,87.4z"/><path class="st3" d="M74.8,112.6l-14.9-0.8c2.2,4.7,4.6,7.6,4.6,7.6l-1.9,16.9l18.9,1.6c0,0,2.1-12.1,3.5-13.8     c0.5-0.6,1.7-0.9,3.1-0.9C80.8,121.2,74.2,113,74.8,112.6z"/><path class="st6" d="M99,92.4c0,0-4,2.4-12-2.9c0,0-5.4,9.7-10.1,8.4c0,0-0.2,6.9-1.2,7.4c-1,0.5-3-5.9-5-6.3     c-2-0.4-4.1,1.6-1.9,7.6c2.1,6,6,6,6,6l-10.4,6.9c0,0-8.2-2.6-9.8-9.4c0,0-10.4-10.1-4.1-17.3c0,0-6.9-5.8,9.2-12.9     c0,0,3.8-14,11.3-7.6c0,0,13.9-10.4,17.3-1.1c0,0,17.9-1.5,19,8.2c1.1,9.7-3.2,12-3.2,12s1,8-4,8.4L99,92.4z"/><path class="st7" d="M49.4,156c0,0-9.4-2.3-7.8-12.3c1.6-10.1,14.8-14.6,41.9-8.3c3.2,0.7,5.7,6,3.6,10.6c0,0,8.7,21.4,11.4,38.9     c2.7,17.5,4.1,35.8,7.1,44.3c2.9,8.5,0.5,18-7.6,18c-8,0-39.6,0-49.4,0s-11-13.6-7.1-27.8C45.3,205.3,51,166.2,49.4,156z"/><path class="st5" d="M71.4,150.5c15.4,3.3,4.7,33.9,1.6,42.6c-3.1,8.8-6.5,16.6-1.6,23.4s13.5,14.4,13.5,14.4l-5.8,12.2     c0,0-32.1-4.1-39.8-13.6c-7.6-9.5-3.3-30.7,3.3-45.3S59.9,148.1,71.4,150.5z"/><path class="st8" d="M78.2,245.2L78.2,245.2c-0.4-0.2-0.5-0.6-0.4-1l7.8-17c0.2-0.4,0.6-0.5,1-0.4l0,0c0.4,0.2,0.5,0.6,0.4,1     l-7.8,17C79,245.2,78.6,245.3,78.2,245.2z"/></g></g><g><g><path class="st9" d="M70.9,303.1c0,2.5-2,4.6-4.6,4.6c-2.5,0-4.6-2.1-4.6-4.6c0-2.5,2-4.6,4.6-4.6     C68.9,298.6,70.9,300.6,70.9,303.1z"/><path class="st10" d="M42.3,301.9c-6.4,0-11.6-5.2-11.6-11.6c0-6.4,5.2-11.6,11.6-11.6s11.6,5.2,11.6,11.6     C53.9,296.7,48.7,301.9,42.3,301.9z M42.3,284.8c-3.1,0-5.5,2.5-5.5,5.5s2.5,5.5,5.5,5.5c3.1,0,5.5-2.5,5.5-5.5     S45.4,284.8,42.3,284.8z"/><path class="st9" d="M375.8,75H372v3.9c0,1.8-1.4,3.2-3.2,3.2c-1.8,0-3.2-1.4-3.2-3.2V75h-3.9c-1.8,0-3.2-1.4-3.2-3.2     c0-1.8,1.4-3.2,3.2-3.2h3.9v-3.9c0-1.8,1.4-3.2,3.2-3.2c1.8,0,3.2,1.4,3.2,3.2v3.9h3.9c1.8,0,3.2,1.4,3.2,3.2     C379,73.6,377.6,75,375.8,75z"/><path class="st11" d="M407.2,54.8c0,2.5-2,4.6-4.6,4.6c-2.5,0-4.6-2-4.6-4.6c0-2.5,2.1-4.6,4.6-4.6     C405.1,50.2,407.2,52.2,407.2,54.8z"/></g><g><path class="st11" d="M170.5,157.7c-13.8-34.6-6.7-75.5,21.3-103.5c13.5-13.5,30-22.2,47.4-25.9L249.5,75     c-21.7,4.7-37.9,24-37.9,47.1c0,6.3,1.2,12.3,3.4,17.9L170.5,157.7z"/><path class="st5" d="M191.8,190c-0.7-0.7-1.5-1.5-2.2-2.3l34.9-32.7c8.8,9.4,21.3,15.2,35.2,15.2c26.6,0,48.2-21.6,48.2-48.2     c0-19-10.9-35.4-26.9-43.2l21.2-42.9c9.2,4.5,17.8,10.6,25.4,18.2c37.5,37.5,37.5,98.4,0,135.9     C290.2,227.5,229.3,227.5,191.8,190z"/><path class="st9" d="M259.8,73.9c-3.6,0-7,0.4-10.3,1.1l-10.2-46.7c21-4.6,43.3-2.1,63,7.7l-21.2,42.9     C274.7,75.6,267.4,73.9,259.8,73.9z"/><path class="st12" d="M189.6,187.7c-8.4-9-14.8-19.2-19.1-30l44.5-17.7c2.2,5.6,5.5,10.7,9.6,15.1L189.6,187.7z"/></g><g><g><path class="st13" d="M478.7,100.7v321.8c0,5.4-4.4,9.8-9.8,9.8H263.1c-5.4,0-9.8-4.4-9.8-9.8V100.7c0-5.4,4.4-9.9,9.8-9.9      h205.7C474.3,90.8,478.7,95.2,478.7,100.7z"/><path class="st14" d="M230.6,441.5h270.8c2.5,0,4.6-2,4.6-4.6l0,0c0-2.5-2-4.6-4.6-4.6H230.6c-2.5,0-4.6,2-4.6,4.6l0,0      C226,439.5,228.1,441.5,230.6,441.5z"/><path class="st13" d="M478.7,100.6v24H253.3v-24c0-5.4,4.4-9.9,9.8-9.9h205.7C474.3,90.8,478.7,95.2,478.7,100.6z"/><g><g><path class="st15" d="M366,423.8L366,423.8c-5.1,0-9.2-4.1-9.2-9.2l0,0c0-5.1,4.1-9.2,9.2-9.2l0,0c5.1,0,9.2,4.1,9.2,9.2l0,0        C375.3,419.7,371.1,423.8,366,423.8z"/></g></g><g><g><path class="st15" d="M279.3,111.2L279.3,111.2c-2.1,0-3.8-1.7-3.8-3.8l0,0c0-2.1,1.7-3.8,3.8-3.8l0,0c2.1,0,3.8,1.7,3.8,3.8        l0,0C283,109.5,281.3,111.2,279.3,111.2z"/></g></g><g><g><path class="st15" d="M291.2,111.2L291.2,111.2c-2.1,0-3.8-1.7-3.8-3.8l0,0c0-2.1,1.7-3.8,3.8-3.8l0,0c2.1,0,3.8,1.7,3.8,3.8        l0,0C295,109.5,293.3,111.2,291.2,111.2z"/></g></g><rect class="st16" height="270.9" width="218.4" x="256.8" y="124.6"/></g><g><g><rect class="st17" height="72.3" transform="matrix(-1.836970e-16 1 -1 -1.836970e-16 459.0915 -60.4)" width="32.1" x="243.7" y="163.2"/><rect class="st17" height="72.3" transform="matrix(-1.836970e-16 1 -1 -1.836970e-16 584.912 -22.8156)" width="32.1" x="287.8" y="244.9"/><rect class="st17" height="72.3" transform="matrix(-1.836970e-16 1 -1 -1.836970e-16 522.0023 -41.6072)" width="32.1" x="265.8" y="204"/></g><g><rect class="st18" height="36.5" width="195" x="267.7" y="136"/><rect class="st19" height="25.9" width="25.9" x="430.9" y="141.2"/><rect class="st20" height="5" width="56.1" x="280.3" y="142.8"/><rect class="st20" height="5" width="56.1" x="280.3" y="151.7"/><rect class="st20" height="5" width="37.8" x="280.3" y="160.6"/></g><g><rect class="st21" height="74.9" width="159.5" x="340" y="291.9"/><rect class="st15" height="6.3" width="62.6" x="355.9" y="317.8"/><rect class="st15" height="6.3" width="47.7" x="355.9" y="329"/><rect class="st15" height="6.3" width="32.2" x="355.9" y="340.3"/><rect class="st15" height="6.3" width="19.2" x="392.1" y="340.3"/><rect class="st15" height="6.3" width="43.5" x="355.9" y="351.5"/></g><g><rect class="st22" height="57.6" width="57.6" x="267.7" y="309.1"/><g><ellipse class="st23" cx="296.5" cy="338.1" rx="18" ry="18" transform="matrix(0.7071 -0.7071 0.7071 0.7071 -152.2155 308.6763)"/><path class="st24" d="M310.2,338.1c0,4.5-2.2,8.5-5.6,11c-1,0.7-2.1,1.4-3.3,1.8c-0.5,0.2-1.1,0.4-1.6,0.5        c-0.3,0.1-0.7,0.1-1,0.2c-0.7,0.1-1.4,0.2-2.1,0.2c-1.4,0-2.8-0.2-4.1-0.6c-5.6-1.7-9.6-6.9-9.6-13.1c0-2.1,0.5-4.2,1.4-6        c1.1-2.2,2.7-4.1,4.7-5.4c0.5-0.3,1-0.6,1.5-0.9c1.1-0.6,2.3-1,3.6-1.2c0.8-0.2,1.7-0.2,2.5-0.2c5.8,0,10.8,3.6,12.7,8.7        C309.8,334.7,310.2,336.3,310.2,338.1z"/><path class="st25" d="M296.5,339.7c-0.9,0-1.6-0.7-1.6-1.6v-8.8c0-0.9,0.7-1.6,1.6-1.6c0.9,0,1.6,0.7,1.6,1.6v8.8        C298.1,339,297.4,339.7,296.5,339.7z"/><path class="st25" d="M296.5,339.7c-0.5,0-1-0.3-1.3-0.7c-0.5-0.7-0.2-1.7,0.5-2.2l4.5-2.9c0.7-0.5,1.7-0.2,2.2,0.5        c0.5,0.7,0.2,1.7-0.5,2.2l-4.5,2.9C297.1,339.6,296.8,339.7,296.5,339.7z"/></g></g><g><rect class="st26" height="113.8" width="113.8" x="348.9" y="183.3"/><path class="st27" d="M405.8,245.3L405.8,245.3c-8,0-14.5-6.5-14.5-14.5v-8.7c0-8,6.5-14.5,14.5-14.5l0,0       c8,0,14.5,6.5,14.5,14.5v8.7C420.3,238.8,413.8,245.3,405.8,245.3z"/><path class="st27" d="M405.8,237.9c-13.7,0-25.4,8-30.9,19.6c-3.2,6.8,1.7,14.6,9.2,14.6h43.5c7.5,0,12.4-7.8,9.2-14.6       C431.3,245.9,419.5,237.9,405.8,237.9z"/></g><rect class="st28" height="195" transform="matrix(-1.836970e-16 1 -1 -1.836970e-16 740.3787 9.9542)" width="9.3" x="360.6" y="277.7"/></g><g><path class="st13" d="M477.3,179.6L477.3,179.6v-33.9l0,0c2.4,0,4.4,2,4.4,4.4v25.2C481.7,177.7,479.7,179.6,477.3,179.6z"/><path class="st13" d="M477.3,217.5L477.3,217.5v-33.9l0,0c2.4,0,4.4,2,4.4,4.4v25.2C481.7,215.5,479.7,217.5,477.3,217.5z"/></g><g><polygon class="st29" points="383.5,124.6 256.8,251.3 256.8,183.2 315.4,124.6     "/><polygon class="st29" points="430.9,124.6 256.8,298.7 256.8,264.7 396.9,124.6     "/></g></g><path class="st30" d="M302,319.6v29.2c0,1.2-0.8,2.3-1.9,2.6v80.8h-36.9c-5.4,0-9.8-4.4-9.8-9.8V260.1h39.9c3.8,0,6.8,3.1,6.8,6.8    V317C301.2,317.4,302,318.4,302,319.6z"/><g><g><path class="st31" d="M273.9,246.6v223.4c0,3.8-3.1,6.8-6.8,6.8H149.8c-3.7,0-6.8-3-6.8-6.8V246.6c0-3.8,3.1-6.8,6.8-6.8H267      C270.8,239.8,273.9,242.8,273.9,246.6z"/><path class="st31" d="M273.9,246.6v16.7H143v-16.7c0-3.8,3.1-6.8,6.8-6.8h117.3C270.8,239.8,273.9,242.9,273.9,246.6z"/><g><g><path class="st15" d="M208.4,471L208.4,471c-3.5,0-6.4-2.9-6.4-6.4l0,0c0-3.5,2.9-6.4,6.4-6.4l0,0c3.5,0,6.4,2.9,6.4,6.4l0,0        C214.8,468.1,212,471,208.4,471z"/></g></g><g><g><path class="st15" d="M184.7,253.9L184.7,253.9c-1.4,0-2.6-1.2-2.6-2.6l0,0c0-1.4,1.2-2.6,2.6-2.6l0,0c1.4,0,2.6,1.2,2.6,2.6        l0,0C187.3,252.8,186.2,253.9,184.7,253.9z"/></g></g><path class="st15" d="M221.6,252.3h-25.9c-0.5,0-1-0.4-1-1s0.4-1,1-1h25.9c0.5,0,1,0.4,1,1S222.1,252.3,221.6,252.3z"/><rect class="st16" height="188.1" width="126" x="145.4" y="263.3"/></g><g><rect class="st18" height="7.2" width="22.9" x="155.5" y="363.3"/><rect class="st18" height="7.2" width="22.9" x="213.8" y="363.3"/><rect class="st18" height="7.2" width="22.9" x="184.6" y="363.3"/></g><g><g><rect class="st18" height="25.3" width="92.2" x="169.3" y="376.4"/><rect class="st32" height="18" width="18" x="239.4" y="380"/><rect class="st20" height="3.5" width="39" x="164.5" y="381.1"/><rect class="st20" height="3.5" width="39" x="164.5" y="387.3"/><rect class="st20" height="3.5" width="26.2" x="164.5" y="393.5"/></g><g><rect class="st18" height="31.6" width="67.4" x="155.7" y="408"/><rect class="st28" height="3.5" width="34.4" x="164.5" y="412.8"/><rect class="st28" height="3.5" width="26.2" x="164.5" y="418.9"/><rect class="st28" height="3.5" width="17.7" x="164.5" y="425.1"/><rect class="st20" height="3.5" width="10.5" x="184.4" y="425.1"/><rect class="st28" height="3.5" width="23.9" x="164.5" y="431.3"/></g><g><rect class="st33" height="80.9" width="99.2" x="137.6" y="275"/><g><circle class="st10" cx="196.3" cy="315.7" r="25.4"/><path class="st24" d="M215.5,315.7c0,6.4-3.1,12-7.8,15.5c-1.4,1-3,1.9-4.7,2.5c-0.7,0.3-1.5,0.5-2.3,0.7        c-0.5,0.1-1,0.2-1.4,0.3c-1,0.2-2,0.2-3,0.2c-2,0-3.9-0.3-5.7-0.9c-7.8-2.4-13.5-9.8-13.5-18.4c0-3,0.7-5.8,1.9-8.4        c1.5-3.1,3.8-5.8,6.7-7.7c0.7-0.5,1.4-0.9,2.1-1.2c1.6-0.8,3.3-1.4,5-1.7c1.2-0.2,2.3-0.3,3.5-0.3c8.2,0,15.2,5.1,17.9,12.3        C215.1,310.9,215.5,313.3,215.5,315.7z"/><path class="st25" d="M196.3,318c-1.2,0-2.2-1-2.2-2.2v-12.3c0-1.2,1-2.2,2.2-2.2s2.2,1,2.2,2.2v12.3        C198.5,317,197.5,318,196.3,318z"/><path class="st25" d="M196.3,318c-0.7,0-1.5-0.4-1.9-1c-0.7-1-0.3-2.4,0.7-3.1l6.4-4c1-0.7,2.4-0.3,3.1,0.7        c0.7,1,0.3,2.4-0.7,3.1l-6.4,4C197.1,317.9,196.7,318,196.3,318z"/></g><polygon class="st29" points="233.4,263.3 145.4,351.2 145.4,304 186.1,263.3      "/><polygon class="st29" points="266.3,263.3 145.4,384.2 145.4,360.5 242.6,263.3      "/></g><g class="st34"><rect class="st22" height="48.8" width="48.8" x="229.9" y="408"/><path class="st27" d="M254.2,434.6L254.2,434.6c-3.4,0-6.2-2.8-6.2-6.2v-3.7c0-3.4,2.8-6.2,6.2-6.2l0,0c3.4,0,6.2,2.8,6.2,6.2       v3.7C260.5,431.8,257.7,434.6,254.2,434.6z"/><path class="st27" d="M254.2,431.4c-5.9,0-10.9,3.4-13.3,8.4c-1.4,2.9,0.7,6.3,3.9,6.3h18.6c3.2,0,5.3-3.4,3.9-6.3       C265.2,434.8,260.1,431.4,254.2,431.4z"/></g><rect class="st22" height="95.5" width="14.5" x="245.7" y="275"/></g><path class="st31" d="M272.9,331.4L272.9,331.4v-34.9l0,0c1.6,0,2.9,1.3,2.9,2.9v29.2C275.8,330.1,274.5,331.4,272.9,331.4z"/></g><path class="st30" d="M185.3,239.8l-12,35.2l-27.6,80.9l-2.7,8v-8h-5.3V275h5.3v-28.4c0-3.8,3.1-6.8,6.8-6.8H185.3z"/><path class="st14" d="M77.7,486h214.6c2.5,0,4.6-2,4.6-4.6l0,0c0-2.5-2-4.6-4.6-4.6H77.7c-2.5,0-4.6,2-4.6,4.6l0,0    C73.2,484,75.2,486,77.7,486z"/></g></g></svg>