<?xml version="1.0" ?><!DOCTYPE svg  PUBLIC '-//W3C//DTD SVG 1.1//EN'  'http://www.w3.org/Graphics/SVG/1.1/DTD/svg11.dtd'><svg enable-background="new 0 0 512 512" height="512px" id="Apps_Development" version="1.1" viewBox="0 0 512 512" width="512px" xml:space="preserve" xmlns="http://www.w3.org/2000/svg" xmlns:xlink="http://www.w3.org/1999/xlink"><path d="M255.847,0C397.312,0,512,114.454,512,256c0,141.549-114.688,256-256.153,256  C114.388,512,0,397.549,0,256C0,114.454,114.388,0,255.847,0z" fill="#4DD0E1" id="Backround"/><g id="Apps_Development_1_"><path d="M230.222,60.477h1.31h0.985h1.313h1.314h1.314l0,0c1.973,0.328,3.283,1.643,3.283,3.285   c0,1.973-1.639,3.287-3.283,3.287h-0.331l-1.309-0.33h-0.989h-1.313h-1.314h-0.98h-1.319h-1.309h-0.659   c-1.969,0-3.283-1.313-3.283-2.958c0-1.642,1.313-3.285,2.953-3.285h0.989h1.309H230.222z M207.559,61.792   c1.644-0.33,3.287,0.984,3.287,2.627c0.325,1.972-0.989,3.615-2.628,3.615h-0.659l-1.314,0.33h-0.984l-1.314,0.328h-0.985   l-0.984,0.33c-1.644,0-3.283-0.988-3.613-2.63c-0.33-1.972,0.984-3.615,2.628-3.615l0.985-0.33h1.313l0.985-0.327h1.314l1.31-0.328   H207.559z M182.271,66.391c1.644-0.33,3.283,0.658,3.613,2.3c0.659,1.642-0.33,3.615-1.969,3.944h-0.33l-1.314,0.328l-0.985,0.328   l-1.314,0.33l-0.984,0.328l-0.989,0.33h-0.325c-1.644,0.328-3.283-0.33-3.942-2.3c-0.33-1.645,0.659-3.287,2.298-3.944l0,0   l1.314-0.328l0.984-0.329l1.314-0.328l0.985-0.33h1.318L182.271,66.391z M157.642,74.606c1.639-0.658,3.608,0,4.267,1.645   c0.659,1.642-0.33,3.614-1.969,4.27h-0.329l-1.314,0.658l-0.984,0.33l-0.989,0.327l-0.98,0.658l-0.989,0.33   c-1.639,0.657-3.613,0-4.267-1.645c-0.66-1.643,0-3.285,1.639-4.273l0.989-0.328l0.979-0.327l1.318-0.658l0.985-0.33l0.984-0.328   L157.642,74.606z M134.648,85.779c1.319-0.987,3.288-0.33,4.272,1.315c0.655,1.313,0.325,3.285-1.314,4.27l-0.33,0.33l-0.985,0.328   l-0.984,0.657l-0.984,0.657l-0.985,0.658l-0.988,0.33c-1.64,0.985-3.608,0.655-4.268-0.988c-0.984-1.314-0.66-3.285,0.984-4.272   l0.984-0.657l0.989-0.657l0.979-0.328l0.989-0.657l0.985-0.657L134.648,85.779z M112.973,99.908   c1.644-0.985,3.618-0.657,4.597,0.657c0.989,1.315,0.66,3.287-0.655,4.603h-0.325l-0.989,0.984l-0.984,0.658l-0.655,0.657   l-0.989,0.658l-0.98,0.657l0,0c-1.318,1.315-3.287,0.986-4.271-0.329c-1.314-1.315-0.984-3.285,0.325-4.6l0,0l0.989-0.657   l0.984-0.658l0.985-0.985l0.659-0.658l0.98-0.658L112.973,99.908z M93.596,116.997c1.319-1.315,3.288-1.315,4.597,0   c1.318,1.314,1.318,3.287,0,4.271l-0.325,0.328l-0.655,0.658l-0.659,0.987l-0.985,0.658l-0.654,0.985l-0.66,0.658l-0.33,0.328   c-1.31,1.314-3.283,1.314-4.597,0.33c-1.314-1.315-1.314-3.287,0-4.603v-0.328l0.984-0.984l0.655-0.658l0.989-0.987l0.659-0.658   L93.596,116.997L93.596,116.997z M76.848,136.385c0.989-1.314,2.958-1.642,4.272-0.658c1.314,0.986,1.644,2.958,0.655,4.273   l-0.655,0.984l-0.655,0.988l-0.659,0.984l-0.659,0.658l-0.655,0.985l-0.325,0.658c-0.989,1.315-2.958,1.645-4.601,0.658   c-1.314-0.985-1.644-2.958-0.655-4.6l0.33-0.33L73.895,140l0.655-0.985l0.659-0.987l0.654-0.657L76.848,136.385z M62.397,157.746   c0.989-1.646,2.958-1.973,4.272-1.315c1.644,0.984,2.298,2.957,1.314,4.271l-0.659,0.985l-0.33,0.985l-0.654,0.988l-0.655,0.984   l-0.33,0.987l-0.33,0.655c-0.984,1.645-2.958,2.302-4.267,1.315c-1.644-0.657-2.299-2.628-1.314-4.272l0.325-0.657l0.33-0.985   l0.659-0.985l0.654-0.987l0.655-0.985L62.397,157.746z M51.234,180.749c0.655-1.645,2.299-2.302,3.938-1.645   c1.644,0.658,2.628,2.63,1.969,4.272l-0.326,0.657l-0.654,1.315l-0.33,0.985l-0.33,0.988l-0.659,0.984v0.658   c-0.654,1.643-2.624,2.629-4.267,1.972c-1.639-0.657-2.299-2.3-1.639-3.944v-0.657l0.654-1.313l0.326-0.987l0.33-0.985l0.659-1.315   L51.234,180.749z M43.021,205.394c0.33-1.645,2.298-2.629,3.942-2.3c1.644,0.328,2.627,1.97,2.298,3.942l0,0l-0.325,1.315   l-0.33,0.984l-0.33,0.987l-0.33,1.311v0.989l-0.33,0.33c-0.325,1.64-1.969,2.955-3.608,2.3c-1.644-0.33-2.958-1.97-2.298-3.619   v-0.326l0.325-1.314v-0.986l0.33-1.314l0.326-0.985L43.021,205.394L43.021,205.394z M38.424,230.697   c0-1.645,1.644-2.955,3.288-2.955c1.968,0.326,2.953,1.971,2.953,3.611l-0.326,0.989v1.311v0.989l-0.33,1.31v0.99v0.654   c-0.33,1.645-1.644,2.96-3.617,2.96c-1.639-0.33-2.953-1.645-2.624-3.614v-0.33v-1.314l0.325-1.315v-1.311v-0.989L38.424,230.697z    M37.114,256.33c-0.33-1.645,1.31-3.29,2.954-3.29c1.644,0,3.283,1.32,3.283,3.29v0.986v1.314v1.314v0.985v1.315v0.329   c0.329,1.64-0.985,3.284-2.958,3.284c-1.639,0-3.279-1.314-3.279-2.959v-0.325v-1.314v-1.315v-0.984v-1.315V256.33z    M39.083,281.958c-0.33-1.641,0.985-3.285,2.628-3.609c1.639,0,3.283,0.983,3.607,2.624l0,0v1.315l0.33,1.314v0.985l0.33,1.314   l0.33,0.985v0.33c0.33,1.645-0.989,3.284-2.628,3.613c-1.644,0.332-3.287-0.654-3.612-2.299v-0.654l-0.33-0.99l-0.326-1.311v-0.989   l-0.33-1.314V281.958L39.083,281.958z M44.339,307.266c-0.33-1.645,0.655-3.615,2.299-3.944c1.639-0.659,3.279,0.329,3.938,2.3   v0.654l0.329,0.99l0.33,0.984l0.33,1.315l0.326,0.984l0.33,0.985c0.655,1.645-0.33,3.285-1.973,3.944   c-1.639,0.326-3.283-0.33-3.938-1.975l-0.33-0.984l-0.33-1.315l-0.33-0.985l-0.325-1.314l-0.33-0.985L44.339,307.266z    M53.204,331.579c-0.66-1.641,0-3.615,1.639-4.27c1.644-0.656,3.287,0,3.946,1.645l0.655,0.654l0.325,1.315l0.33,0.985l0.659,0.984   l0.33,0.99l0.325,0.655c0.985,1.645,0.33,3.613-1.313,4.27c-1.64,0.659-3.613,0-4.267-1.641l-0.33-0.66l-0.659-0.983l-0.325-0.985   l-0.655-1.315l-0.33-0.984L53.204,331.579z M65.025,354.256c-0.984-1.315-0.329-3.289,0.989-4.273   c1.64-0.985,3.608-0.655,4.598,0.984l0.329,0.661l0.651,0.983l0.659,0.985l0.33,0.984l0.659,0.99l0.655,0.654   c0.984,1.646,0.325,3.616-0.985,4.275c-1.644,0.985-3.617,0.655-4.272-0.659l-0.654-0.985l-0.659-0.985l-0.655-0.989l-0.655-0.985   l-0.33-0.984L65.025,354.256z M79.805,375.285c-0.984-1.315-0.984-3.285,0.659-4.27c1.31-1.315,3.279-0.985,4.267,0.325l0.66,0.659   l0.655,0.656l0.655,0.988l0.659,0.985l0.655,0.655l0.654,0.985c1.319,1.315,0.989,3.289-0.325,4.274   c-1.314,1.313-3.283,0.984-4.271-0.331l-0.655-0.654l-0.984-0.985l-0.659-0.988l-0.655-0.656l-0.655-0.984L79.805,375.285z    M97.213,394.344c-0.989-1.311-1.319-3.284,0-4.6c1.31-1.315,3.283-1.315,4.597,0l0.33,0.329l0.655,0.656l0.985,0.659l0.659,0.985   l0.98,0.659l0.659,0.655h0.33c1.314,1.315,1.314,3.284,0.33,4.6c-1.318,1.314-3.287,1.314-4.597,0.329h-0.33l-0.659-0.984   l-0.984-0.66l-0.655-0.984l-0.989-0.655l-0.985-0.66L97.213,394.344z M117.245,410.776c-1.314-0.984-1.644-2.96-0.654-4.6   c0.979-1.314,2.953-1.645,4.267-0.658h0.33l0.655,0.658l0.984,0.655l0.989,0.66l0.979,0.655l0.989,0.66l0.33,0.324   c1.31,0.985,1.639,2.96,0.655,4.274c-0.985,1.641-2.953,1.971-4.272,0.985l-0.325-0.33l-0.984-0.655l-0.989-0.659l-0.98-0.655   l-0.988-0.66L117.245,410.776L117.245,410.776z M138.92,424.251c-1.314-0.66-1.973-2.629-1.314-4.273   c0.984-1.641,2.958-1.972,4.267-1.315h0.33l0.989,0.659l0.98,0.656l0.989,0.329l0.984,0.655l0.984,0.329l0.33,0.331   c1.639,0.653,2.299,2.629,1.639,4.269c-0.98,1.645-2.628,2.301-4.267,1.314h-0.659l-0.98-0.654l-0.989-0.66l-0.984-0.324   l-0.985-0.66L138.92,424.251L138.92,424.251z M162.568,435.095c-1.644-0.66-2.628-2.63-1.973-4.274   c0.655-1.641,2.299-2.3,3.942-1.97l0.33,0.329l0.98,0.325l0.988,0.331l1.314,0.329l0.984,0.33l0.985,0.325l0.329,0.329   c1.644,0.656,2.624,2.301,1.969,3.945c-0.325,1.64-2.298,2.63-3.942,1.971h-0.325l-0.985-0.331l-1.318-0.654l-0.98-0.33   l-0.989-0.329L162.568,435.095L162.568,435.095z M187.197,442.323c-1.644-0.329-2.953-1.974-2.298-3.613   c0.325-1.976,1.969-2.96,3.612-2.63l0.66,0.33h0.98l1.318,0.324l0.98,0.331l1.319,0.329h0.98c1.648,0.33,2.628,1.97,2.303,3.614   c-0.33,1.971-1.974,2.955-3.612,2.63l-0.989-0.329h-1.31l-0.989-0.33l-1.31-0.326l-0.989-0.33H187.197z M212.485,446.265   c-1.639,0-2.958-1.641-2.958-3.285c0.33-1.641,1.973-2.954,3.617-2.954h0.325h0.984l1.318,0.324h1.31h0.989h1.31l0,0   c1.644,0.329,2.958,1.645,2.958,3.614c0,1.645-1.644,2.96-3.287,2.96l0,0l-1.31-0.329h-1.313h-0.985h-1.318l-1.31-0.33H212.485z    M238.432,446.924c-1.973,0-3.287-1.315-3.287-2.96c-0.325-1.641,0.984-3.285,2.958-3.285h0.329h1.31l1.313-0.329h0.989h1.309h0.99   c1.639-0.324,3.283,0.989,3.283,2.96c0,1.645-1.314,3.285-2.958,3.285h-0.984h-0.985l-1.313,0.329h-1.314h-1.313H238.432z    M264.045,444.294c-1.969,0.33-3.613-0.984-3.938-2.63c-0.329-1.639,0.984-3.285,2.624-3.614l0.659-0.325h0.984l1.314-0.33h0.984   l0.984-0.329l1.313-0.331c1.645-0.324,3.288,0.66,3.613,2.63c0.329,1.645-0.654,3.289-2.299,3.615l-1.314,0.33h-0.983l-1.314,0.329   l-0.984,0.325h-1.314L264.045,444.294z M289.007,438.05c-1.644,0.66-3.611-0.325-3.941-1.97c-0.66-1.646,0.33-3.615,1.968-3.944   l0.985-0.33l0.988-0.325l0.984-0.66l1.314-0.325l0.984-0.33h0.655c1.644-0.66,3.287,0,3.942,1.641   c0.659,1.645-0.33,3.615-1.97,4.274h-0.659l-0.984,0.654l-1.313,0.331l-0.985,0.329l-0.984,0.33L289.007,438.05z M312.981,428.521   c-1.644,0.984-3.613,0-4.272-1.315c-0.984-1.639-0.325-3.614,1.314-4.27l0,0l0.984-0.66l1.314-0.324l0.988-0.66l0.984-0.329   l0.984-0.655l0.33-0.329c1.639-0.656,3.612,0,4.267,1.645c0.984,1.313,0.33,3.284-1.313,4.269h-0.33l-1.309,0.66l-0.99,0.654   l-0.984,0.33l-0.983,0.656L312.981,428.521L312.981,428.521z M335.311,416.036c-1.313,0.985-3.283,0.656-4.268-0.989   c-0.983-1.314-0.659-3.285,0.655-4.271l0.984-0.659l0.989-0.654l0.984-0.655l0.984-0.66l0.984-0.655l0.33-0.329   c1.644-0.986,3.612-0.66,4.597,0.984c0.983,1.315,0.659,3.284-0.984,4.27l-0.329,0.33l-0.985,0.659l-0.984,0.655l-0.984,0.659   l-0.984,0.656L335.311,416.036z M356.002,400.588c-1.313,0.989-3.283,0.989-4.598-0.326c-0.984-1.313-0.984-3.289,0.33-4.604   l0.655-0.325l0.984-0.989l0.659-0.655l0.984-0.655l0.655-0.659l0.659-0.655c1.313-1.315,3.282-1.315,4.596,0   c1.314,1.314,0.985,3.285-0.329,4.599l-0.655,0.655l-0.659,0.66l-0.984,0.984l-0.983,0.656l-0.655,0.659L356.002,400.588z    M374.394,382.515c-1.314,1.314-3.282,1.314-4.597,0.329c-1.313-1.314-1.313-3.284-0.329-4.599l0.655-0.33l0.659-0.985l0.653-0.659   l0.66-0.985l0.983-0.655l0.655-0.985c0.99-1.315,2.958-1.645,4.272-0.329c1.313,0.985,1.644,2.955,0.329,4.271l-0.659,0.988   l-0.655,0.985l-0.659,0.654l-0.984,0.985l-0.653,0.99L374.394,382.515z M390.158,362.142c-0.985,1.645-2.958,1.969-4.272,0.985   c-1.639-0.985-1.968-2.956-0.983-4.271l0.33-0.659l0.653-0.656l0.331-0.984l0.659-0.985l0.653-0.99l0.655-0.984l0,0   c0.988-1.64,2.958-1.969,4.602-0.985c1.314,0.656,1.64,2.63,0.984,4.271h-0.329l-0.655,0.989l-0.329,0.985l-0.655,0.985   l-0.659,0.984l-0.655,0.985L390.158,362.142z M403.294,340.123c-0.983,1.314-2.958,1.975-4.267,1.314   c-1.644-0.655-2.303-2.629-1.644-4.27l0.329-0.33l0.325-0.984l0.659-0.985l0.33-0.984l0.654-0.99l0.33-0.984v-0.33   c0.984-1.641,2.628-2.3,4.267-1.641c1.644,0.656,2.299,2.63,1.644,4.271v0.33l-0.659,0.985l-0.325,0.983l-0.659,0.99l-0.329,1.311   l-0.655,0.988V340.123z M413.147,316.136c-0.659,1.645-2.299,2.63-3.942,1.974c-1.969-0.329-2.628-2.304-2.299-3.944l0.33-0.33   l0.325-0.984l0.33-1.315l0.329-0.985l0.33-0.984l0.325-1.315l0,0c0.659-1.645,2.299-2.629,3.942-1.975   c1.644,0.33,2.628,2.3,2.299,3.944l0,0l-0.331,0.985l-0.324,1.315l-0.659,0.984l-0.325,1.315l-0.33,0.985V316.136z    M419.713,291.492c-0.325,1.64-1.969,2.624-3.612,2.3c-1.639-0.331-2.953-1.976-2.623-3.615l0.325-0.99v-0.983l0.329-1.315   l0.33-0.985v-1.314v-0.655c0.324-1.645,1.968-2.96,3.611-2.63c1.97,0.33,2.954,1.971,2.629,3.615v0.659v1.311l-0.33,0.99   l-0.329,1.309v1.315L419.713,291.492z M423.001,265.858c0,1.641-1.645,2.956-3.288,2.956c-1.64,0-3.283-1.641-2.952-3.285v-0.985   v-0.984v-1.314v-1.315l0.329-0.985v-0.659c0-1.641,1.314-3.285,2.953-3.285c1.969,0.33,3.283,1.645,3.283,3.285v0.659v1.315v1.314   l-0.325,1.311v0.989V265.858z M423.001,240.227c0,1.645-1.314,2.955-2.958,3.285c-1.97,0-3.282-1.311-3.613-2.955v-0.985v-1.319   v-1.31l-0.329-0.99v-1.31v-0.33c-0.324-1.64,0.989-3.289,2.628-3.615c1.974,0,3.283,1.315,3.613,2.956v0.33v1.315l0.329,1.314   v0.984v1.315L423.001,240.227z M419.388,214.593c0.325,1.645-0.659,3.29-2.298,3.615c-1.973,0.33-3.612-0.655-3.942-2.3v-0.984   l-0.329-0.985l-0.33-1.315l-0.325-0.989l-0.329-1.311v-0.658c-0.33-1.645,0.654-3.287,2.298-3.614   c1.645-0.658,3.282,0.658,3.941,2.3v0.656l0.331,0.986l0.324,1.314l0.33,1.315v0.985L419.388,214.593z M412.488,189.621   c0.659,1.643-0.325,3.615-1.969,4.272c-1.644,0.327-3.283-0.331-3.942-1.973v-0.328l-0.655-0.987l-0.329-0.985l-0.33-1.315   l-0.325-0.984l-0.329-0.988l-0.33-0.328c-0.655-1.643,0.33-3.615,1.974-3.945c1.64-0.657,3.283,0,3.938,1.645l0.33,0.328   l0.329,0.987l0.326,1.313l0.329,0.988l0.659,0.984L412.488,189.621L412.488,189.621z M402.311,165.96   c0.983,1.643,0.329,3.615-1.314,4.272c-1.644,0.984-3.612,0.327-4.271-1.315v-0.328l-0.655-0.987l-0.655-0.985l-0.329-0.985   l-0.659-0.987l-0.325-0.984l-0.33-0.331c-0.659-1.312-0.329-3.285,1.314-4.272c1.313-0.655,3.283-0.328,4.268,1.315v0.33   l0.659,0.985l0.655,0.985l0.329,0.988l0.654,0.984L402.311,165.96L402.311,165.96z M389.173,143.944   c0.985,1.313,0.655,3.285-0.658,4.27c-1.639,0.988-3.612,0.658-4.597-0.655l0,0l-0.655-0.987l-0.659-0.985l-0.655-0.988   l-0.658-0.985l-0.655-0.658l-0.33-0.327c-0.984-1.646-0.654-3.615,0.655-4.603c1.314-0.985,3.287-0.657,4.602,0.658v0.33   l0.655,0.985l0.983,0.984l0.66,0.988l0.654,0.984L389.173,143.944L389.173,143.944z M373.079,123.898   c1.314,1.313,1.314,3.285,0,4.272c-1.313,1.313-3.282,1.313-4.596,0l-0.659-0.988l-0.984-0.658l-0.655-0.984l-0.659-0.658   l-0.984-0.985l-0.33-0.33c-1.313-1.315-1.313-3.285,0-4.6c1.314-1.315,3.288-0.987,4.602,0l0.325,0.657l0.985,0.658l0.659,0.984   l0.984,0.985l0.659,0.658L373.079,123.898z M354.688,105.825c1.313,1.312,1.313,3.285,0.329,4.6s-3.283,1.315-4.598,0.328   l-0.659-0.655l-0.654-0.658l-0.985-0.658l-0.988-0.657l-0.655-0.658l-0.653-0.657c-1.644-0.985-1.644-2.958-0.66-4.272   c0.984-1.643,2.957-1.643,4.597-0.658l0.659,0.658l0.984,0.658l0.655,0.657l0.989,0.658l0.984,0.984L354.688,105.825z    M333.997,90.709c1.313,0.984,1.644,2.957,0.988,4.27c-0.988,1.645-2.958,1.973-4.602,0.988l-0.324-0.33l-0.989-0.658l-0.984-0.655   l-0.984-0.33l-0.984-0.658l-0.984-0.657c-1.314-0.657-1.974-2.627-0.984-4.272c0.654-1.643,2.624-1.97,4.268-0.985l0.983,0.328   l0.984,0.657l0.99,0.657l0.983,0.658l0.984,0.658L333.997,90.709z M311.338,78.22c1.644,0.657,2.299,2.629,1.644,4.272   c-0.984,1.642-2.628,2.3-4.272,1.642l-0.654-0.328l-0.985-0.327l-0.988-0.657l-0.984-0.33l-1.314-0.658l-0.984-0.327   c-1.314-0.658-2.299-2.63-1.639-4.272c0.654-1.314,2.623-2.3,4.267-1.642l0.985,0.658l0.984,0.327l1.313,0.658l0.989,0.328   l0.984,0.33L311.338,78.22z M287.363,69.021c1.644,0.654,2.628,2.299,1.969,3.942c-0.325,1.643-2.299,2.63-3.937,2.3l-0.659-0.328   l-1.314-0.329l-0.984-0.328l-0.984-0.33l-1.314-0.328l-0.655-0.33c-1.644-0.328-2.628-1.971-2.303-3.942   c0.33-1.643,2.303-2.629,3.942-1.972h0.659l1.314,0.329l0.984,0.328l1.314,0.33l0.983,0.328L287.363,69.021z M262.076,63.104   c1.969,0.33,2.953,1.973,2.628,3.615c-0.33,1.645-1.974,2.957-3.613,2.629l0,0l-1.313-0.327h-1.314l-0.984-0.33h-1.314   l-0.984-0.328l0,0c-1.974,0-3.287-1.645-2.958-3.287c0.331-1.973,1.974-3.285,3.613-2.957l0,0l1.313,0.327h1.314l0.984,0.33h1.314   L262.076,63.104L262.076,63.104z" fill="#BDE0C8"/><path d="M147.789,29.586h161.58c22.659,0,41.052,18.401,41.052,41.077v371.001   c0,22.349-18.393,40.752-41.052,40.752h-161.58c-22.334,0-40.722-18.403-40.722-40.752V70.663   C107.066,47.987,125.455,29.586,147.789,29.586z" fill="#E6E6E6"/><path d="M147.789,26.629h161.58c12.151,0,23.314,4.93,31.199,12.813c7.88,7.887,12.807,19.062,12.807,31.22v371.001   c0,11.829-4.927,23.004-12.807,30.893c-7.885,7.886-19.048,12.814-31.199,12.814h-161.58c-11.822,0-22.994-4.929-30.874-12.814   c-7.88-7.889-12.806-19.063-12.806-30.893V70.663c0-12.159,4.926-23.333,12.806-31.22   C124.795,31.559,135.967,26.629,147.789,26.629z M309.368,32.544h-161.58c-10.183,0-19.706,4.272-26.602,11.172   c-6.896,6.901-11.167,16.431-11.167,26.947v371.001c0,10.189,4.272,19.719,11.167,26.618c6.896,6.903,16.419,11.174,26.602,11.174   h161.58c10.508,0,20.031-4.271,26.932-11.174c6.896-6.899,11.163-16.429,11.163-26.618V70.663c0-10.516-4.268-20.046-11.163-26.947   C329.399,36.816,319.876,32.544,309.368,32.544z" fill="#3C4250"/><path d="M151.397,56.862h154.684c15.438,0,28.245,12.813,28.245,28.26v317.766   c0,15.449-12.807,28.262-28.245,28.262H151.397c-15.43,0-28.241-12.813-28.241-28.262V85.122   C123.156,69.675,135.967,56.862,151.397,56.862z" fill="#4E5A62"/><path d="M128.412,442.979h28.9c2.958,0,5.256,2.3,5.256,5.26l0,0c0,2.954-2.298,5.254-5.256,5.254h-28.9   c-2.958,0-5.256-2.3-5.256-5.254l0,0C123.156,445.279,125.455,442.979,128.412,442.979z" fill="#CCCCCC"/><path d="M216.097,442.979h31.858c4.598,0,8.209,3.615,8.209,8.214l0,0c0,4.604-3.612,8.22-8.209,8.22h-31.858   c-4.597,0-8.209-3.615-8.209-8.22l0,0C207.888,446.595,211.5,442.979,216.097,442.979z" fill="#7F8C8D"/><path d="M300.17,442.979h28.9c2.957,0,5.256,2.3,5.256,5.26l0,0c0,2.954-2.299,5.254-5.256,5.254h-28.9   c-2.953,0-5.252-2.3-5.252-5.254l0,0C294.918,445.279,297.217,442.979,300.17,442.979z" fill="#CCCCCC"/><path d="M186.867,37.144h83.748c2.953,0,5.256,2.299,5.256,5.259l0,0c0,2.958-2.303,5.257-5.256,5.257h-83.748   c-2.953,0-5.252-2.299-5.252-5.257l0,0C181.615,39.443,183.914,37.144,186.867,37.144z" fill="#FEFEFE"/><path d="M217.411,444.624h29.229c4.269,0,7.556,2.956,7.556,6.569l0,0c0,3.615-3.287,6.574-7.556,6.574h-29.229   c-4.267,0-7.555-2.959-7.555-6.574l0,0C209.856,447.58,213.144,444.624,217.411,444.624z" fill="#CCCCCC"/><rect fill="#848688" height="20.547" width="291.599" x="82.104" y="372.656"/><rect fill="#FFCC29" height="20.547" width="160.251" x="82.104" y="372.656"/><ellipse cx="250.909" cy="383.174" fill="#E6E7E8" rx="16.748" ry="16.758"/><circle cx="250.909" cy="383.172" fill="#D3D5D6" r="11.501"/><path d="M189.496,143.944c2.298,0.328,3.942,0.985,5.911,1.643l4.927-8.217l10.182,5.917l-4.597,8.214   c1.64,1.314,3.283,2.957,4.597,4.599l8.209-4.599l5.582,10.517l-7.879,4.27c0.984,1.972,1.313,3.945,1.644,6.245h9.194   l-0.33,11.831h-8.54c-0.325,1.97-0.984,4.272-1.644,6.243l7.225,4.271l-6.236,10.187l-6.895-4.272   c-1.644,1.973-2.958,3.287-4.927,4.93l3.938,7.231l-10.183,5.585l-3.938-6.904c-1.968,0.659-3.942,1.319-6.24,1.649v7.885h-11.822   v-7.885c-2.298-0.33-4.271-0.99-6.57-1.975l-3.938,7.229l-10.182-6.245l3.942-6.899c-1.644-1.645-3.612-3.287-4.926-5.26   l-7.225,3.945l-5.911-10.186l7.555-4.272c-0.659-1.973-1.319-4.272-1.644-6.244l-8.54-0.328l0.33-11.832h8.864   c0.33-1.969,0.989-3.942,1.644-5.914l-7.555-4.6l5.911-10.187l8.214,4.6c1.31-1.315,2.628-2.63,4.267-3.943l-4.597-8.217   l10.508-5.914l4.597,8.214c1.644-0.328,3.613-0.985,5.256-1.313v-9.532h11.822V143.944z" fill="#E6E7E8"/><ellipse cx="183.584" cy="177.79" fill="#D2D3D5" rx="18.063" ry="18.074"/><ellipse cx="183.584" cy="177.791" fill="#BDBFC1" rx="14.121" ry="14.13"/><path d="M204.601,92.021c0.989,0,1.973,0.33,2.958,0.657l2.298-4.272l5.256,3.287l-2.298,3.943   c0.984,0.657,1.639,1.645,2.298,2.302l4.268-2.302l2.958,5.587l-3.942,1.973c0.33,0.985,0.655,2.299,0.655,3.287h4.602v5.914   h-4.602c0,1.315-0.326,2.3-0.655,3.285l3.612,2.3l-2.957,5.259l-3.608-2.299c-0.989,0.985-1.644,1.642-2.628,2.299l2.298,3.615   l-5.586,2.957l-1.968-3.614c-0.985,0.657-1.969,0.657-2.958,0.984v3.945h-5.907v-3.945c-1.318-0.327-2.298-0.658-3.617-0.984   l-1.968,3.614l-5.257-2.957l2.299-3.615c-0.98-0.987-1.969-1.645-2.628-2.629l-3.608,1.972l-2.958-5.257l3.613-2.302   c-0.325-0.985-0.655-1.97-0.655-2.957l-4.597-0.328l0.325-5.915h4.602c0-0.987,0.325-1.973,0.655-2.958l-3.942-2.302l3.288-5.257   l3.938,2.3c0.659-0.658,1.644-1.315,2.299-1.973l-2.299-4.272l5.257-2.957l2.298,4.272c0.985-0.328,1.969-0.657,2.958-0.657v-4.927   h5.907V92.021z" fill="#E6E7E8"/><circle cx="201.647" cy="109.11" fill="#D2D3D5" r="9.202"/><circle cx="201.647" cy="109.11" fill="#BDBFC1" r="7.229"/><rect fill="#FEFEFE" height="199.141" width="265.363" x="243.354" y="145.257"/><rect fill="#F5534E" height="83.138" width="111.004" x="255.835" y="159.388"/><path d="M243.354,141.972h265.688c1.644,0,2.958,1.315,2.958,3.285v199.141c0,1.641-1.314,2.955-2.958,2.955   H243.354c-1.639,0-3.283-1.314-3.283-2.955V145.257C240.071,143.287,241.714,141.972,243.354,141.972z M505.759,148.214H246.641   v192.898h259.118V148.214z" fill="#3C4250"/><rect fill="#D2D3D5" height="70.984" width="233.176" x="259.447" y="257.97"/><path d="M390.158,164.975h97.16c3.813,0,6.899,3.06,6.899,6.837l0,0c0,3.778-3.086,6.84-6.899,6.84h-97.16   c-3.809,0-6.896-3.062-6.896-6.84l0,0C383.263,168.035,386.35,164.975,390.158,164.975z" fill="#D2D3D5"/><path d="M390.158,184.363h97.16c3.813,0,6.899,3.06,6.899,6.838l0,0c0,3.777-3.086,6.839-6.899,6.839h-97.16   c-3.809,0-6.896-3.062-6.896-6.839l0,0C383.263,187.423,386.35,184.363,390.158,184.363z" fill="#D2D3D5"/><path d="M390.158,204.079h97.16c3.813,0,6.899,3.062,6.899,6.837v0.005c0,3.77-3.086,6.836-6.899,6.836h-97.16   c-3.809,0-6.896-3.066-6.896-6.836v-0.005C383.263,207.141,386.35,204.079,390.158,204.079z" fill="#D2D3D5"/><path d="M390.158,223.467h97.16c3.813,0,6.899,3.062,6.899,6.837l0,0c0,3.775-3.086,6.842-6.899,6.842h-97.16   c-3.809,0-6.896-3.066-6.896-6.842l0,0C383.263,226.529,386.35,223.467,390.158,223.467z" fill="#D2D3D5"/><path d="M250.909,363.786c3.287,0,5.911,0.985,8.538,1.969c2.299,1.315,4.272,2.96,5.912,4.601h108.375   c1.314,0,2.303,0.985,2.303,2.301v20.701c0,1.315-0.988,2.301-2.303,2.301H265.359c-1.64,1.975-3.613,3.29-5.912,4.604   c-2.627,1.315-5.251,1.972-8.538,1.972c-2.954,0-5.912-0.656-8.21-1.972c-2.298-1.313-4.267-2.629-5.911-4.604H82.104   c-1.314,0-2.299-0.985-2.299-2.301v-20.701c0-1.315,0.985-2.301,2.299-2.301h154.684c1.644-1.641,3.613-3.285,5.911-4.601l0,0   C244.997,364.771,247.955,363.786,250.909,363.786z M257.479,370.03c-1.973-0.99-4.272-1.645-6.569-1.645   c-2.299,0-4.269,0.654-6.241,1.645l0,0l0,0c-1.969,0.985-3.613,2.299-4.926,3.939c-0.655,0.66-1.31,0.99-1.97,0.99H84.402v16.1   h153.37l0,0c0.66,0,1.314,0.329,1.644,0.984c1.314,1.645,3.283,2.96,5.252,3.944c1.973,0.984,3.942,1.645,6.241,1.645   c2.297,0,4.596-0.66,6.569-1.645c1.969-0.984,3.612-2.3,4.927-3.944c0.325-0.655,1.314-0.984,1.969-0.984h107.062v-16.1H264.374   l0,0c-0.654,0-1.313-0.33-1.969-0.659C261.091,372.329,259.447,371.016,257.479,370.03z" fill="#3C4250"/><path d="M48.277,266.844c23.399,0,42.366,18.979,42.366,42.392s-18.967,42.393-42.366,42.393   c-23.395,0-42.366-18.979-42.366-42.393S24.882,266.844,48.277,266.844z" fill="#F5534E"/><path d="M48.277,294.447c2.958-5.915,5.912-8.87,11.822-8.87c6.57,0,11.822,5.586,11.822,11.828   c0,11.83-11.822,23.659-23.644,35.488c-11.822-11.829-23.644-23.658-23.644-35.488c0-6.242,5.582-11.828,11.822-11.828   C42.366,285.577,45.319,288.532,48.277,294.447z" fill="#FEFEFE"/><ellipse cx="44.665" cy="166.946" fill="#F5534E" rx="42.366" ry="42.39"/><path d="M44.665,122.254c12.151,0,23.319,4.929,31.198,13.146C84.073,143.287,89,154.458,89,166.945   c0,12.159-4.927,23.333-13.137,31.219c-7.879,8.215-19.047,13.144-31.198,13.144c-12.477,0-23.648-4.929-31.528-13.144   C4.926,190.278,0,179.104,0,166.945c0-12.487,4.926-23.658,13.136-31.545C21.016,127.183,32.188,122.254,44.665,122.254z    M73.239,138.027c-7.555-7.229-17.407-11.829-28.575-11.829c-11.497,0-21.35,4.599-28.9,11.829   c-7.225,7.56-11.822,17.416-11.822,28.918c0,11.174,4.597,21.033,11.822,28.59c7.55,7.229,17.403,11.829,28.9,11.829   c11.167,0,21.02-4.599,28.575-11.829c7.225-7.229,11.822-17.416,11.822-28.59C85.062,155.443,80.464,145.587,73.239,138.027z" fill="#3C4250"/><path d="M35.466,175.489c3.287,0,6.245,0.987,8.213,2.3v-0.985l0.659-35.162c0,0,15.76,10.187,19.373,16.104   c3.613,5.915,0.33,13.144,0.33,13.144s0.326-1.973-1.314-8.217c-1.969-6.242-14.78-12.814-14.78-12.814l-0.33,33.518l-0.325,0.33   l0,0c0,1.643-0.655,2.958-1.644,4.272l-0.33,0.657v-0.33c-1.968,2.3-5.581,3.945-9.853,3.945c-6.566,0-11.822-3.945-11.822-8.544   C23.644,179.104,28.9,175.489,35.466,175.489z" fill="#FEFEFE"/><path d="M48.277,264.874c12.481,0,23.644,4.929,31.528,13.144c8.21,7.885,13.136,19.059,13.136,31.218   c0,12.489-5.252,23.658-13.136,31.547c-7.884,8.215-19.047,13.145-31.528,13.145c-12.151,0-23.314-4.93-31.199-13.145   c-8.214-7.889-13.136-19.058-13.136-31.547c0-12.159,4.922-23.333,13.136-31.218C24.962,269.803,36.125,264.874,48.277,264.874z    M77.177,280.647c-7.555-7.229-17.408-11.833-28.9-11.833c-11.163,0-21.345,4.604-28.57,11.833   c-7.225,7.556-11.822,17.414-11.822,28.588c0,11.499,4.597,21.359,11.822,28.917c7.225,7.23,17.407,11.83,28.57,11.83   c11.492,0,21.346-4.6,28.9-11.83C84.402,330.595,89,320.734,89,309.235C89,298.062,84.402,288.203,77.177,280.647z" fill="#3C4250"/><ellipse cx="177.673" cy="309.236" fill="#F5534E" rx="42.366" ry="42.392"/><path d="M142.533,317.45L142.533,317.45c0-9.53,7.555-17.414,17.078-17.744c2.958-5.914,9.194-10.188,16.089-10.188   c6.9,0,13.14,3.942,15.769,9.858c2.299-1.315,4.267-1.645,6.896-1.645c7.88,0,14.45,6.574,14.45,14.458   c0,1.975-0.33,3.615-0.989,5.26H142.533z" fill="#FEFEFE"/><path d="M177.673,264.874c12.477,0,23.319,4.929,31.529,13.144c7.879,7.885,12.806,19.059,12.806,31.218   c0,12.489-4.926,23.658-12.806,31.547c-8.21,8.215-19.052,13.145-31.529,13.145c-12.152,0-23.319-4.93-31.203-13.145   c-8.205-7.889-13.132-19.058-13.132-31.547c0-12.159,4.927-23.333,13.132-31.218C154.354,269.803,165.521,264.874,177.673,264.874z    M206.244,280.647c-7.225-7.229-17.404-11.833-28.571-11.833s-21.35,4.604-28.575,11.833c-7.225,7.556-11.822,17.414-11.822,28.588   c0,11.499,4.597,21.359,11.822,28.917c7.225,7.23,17.408,11.83,28.575,11.83s21.346-4.6,28.571-11.83   c7.555-7.558,12.151-17.418,12.151-28.917C218.396,298.062,213.799,288.203,206.244,280.647z" fill="#3C4250"/><path d="M5.586,78.877h152.71c1.644,0,3.283,1.314,3.283,3.287v18.073c0,1.643-1.64,3.285-3.283,3.285H5.586   c-1.644,0-3.287-1.643-3.287-3.285V82.165C2.299,80.192,3.942,78.877,5.586,78.877z" fill="#3C4250"/><rect fill="#FEFEFE" height="18.083" width="152.733" x="5.586" y="82.165"/><path d="M5.586,51.602h152.71c1.644,0,3.283,1.315,3.283,2.958v18.076c0,1.971-1.64,3.285-3.283,3.285H5.586   c-1.644,0-3.287-1.314-3.287-3.285V54.56C2.299,52.917,3.942,51.602,5.586,51.602z" fill="#3C4250"/><rect fill="#FEFEFE" height="18.084" width="152.733" x="5.586" y="54.56"/><path d="M15.109,59.489c2.174,0,3.938,1.767,3.938,3.944c0,2.177-1.764,3.943-3.938,3.943   c-2.178,0-3.942-1.766-3.942-3.943C11.167,61.256,12.931,59.489,15.109,59.489z" fill="#3C4250"/><path d="M27.261,59.489c2.173,0,3.938,1.767,3.938,3.944c0,2.177-1.764,3.943-3.938,3.943   c-2.179,0-3.947-1.766-3.947-3.943C23.314,61.256,25.083,59.489,27.261,59.489z" fill="#3C4250"/><path d="M39.413,59.489c2.174,0,3.938,1.767,3.938,3.944c0,2.177-1.764,3.943-3.938,3.943   c-2.178,0-3.946-1.766-3.946-3.943C35.466,61.256,37.234,59.489,39.413,59.489z" fill="#3C4250"/><path d="M51.564,59.489c2.174,0,3.938,1.767,3.938,3.944c0,2.177-1.764,3.943-3.938,3.943   c-2.183,0-3.946-1.766-3.946-3.943C47.618,61.256,49.381,59.489,51.564,59.489z" fill="#3C4250"/><path d="M63.387,59.489c2.173,0,3.938,1.767,3.938,3.944c0,2.177-1.764,3.943-3.938,3.943   c-2.179,0-3.942-1.766-3.942-3.943C59.444,61.256,61.208,59.489,63.387,59.489z" fill="#3C4250"/><path d="M75.538,59.489c2.174,0,3.938,1.767,3.938,3.944c0,2.177-1.764,3.943-3.938,3.943   c-2.178,0-3.946-1.766-3.946-3.943C71.592,61.256,73.36,59.489,75.538,59.489z" fill="#3C4250"/><path d="M15.109,86.437c2.174,0,3.938,1.765,3.938,3.943c0,2.177-1.764,3.944-3.938,3.944   c-2.178,0-3.942-1.768-3.942-3.944C11.167,88.201,12.931,86.437,15.109,86.437z" fill="#3C4250"/><path d="M27.261,86.437c2.173,0,3.938,1.765,3.938,3.943c0,2.177-1.764,3.944-3.938,3.944   c-2.179,0-3.947-1.768-3.947-3.944C23.314,88.201,25.083,86.437,27.261,86.437z" fill="#3C4250"/><path d="M39.413,86.437c2.174,0,3.938,1.765,3.938,3.943c0,2.177-1.764,3.944-3.938,3.944   c-2.178,0-3.946-1.768-3.946-3.944C35.466,88.201,37.234,86.437,39.413,86.437z" fill="#3C4250"/></g></svg>