<?xml version="1.0" ?><!DOCTYPE svg  PUBLIC '-//W3C//DTD SVG 1.1//EN'  'http://www.w3.org/Graphics/SVG/1.1/DTD/svg11.dtd'><svg enable-background="new 0 0 128 128" id="Слой_1" version="1.1" viewBox="0 0 128 128" xml:space="preserve" xmlns="http://www.w3.org/2000/svg" xmlns:xlink="http://www.w3.org/1999/xlink"><g><g><path d="M81.3,124H46.2c-8.3,0-15-6.7-15-15V19c0-8.3,6.7-15,15-15h35.1c8.3,0,15,6.7,15,15v90    C96.3,117.3,89.6,124,81.3,124z" fill="#D6D6D6"/></g><circle cx="63.8" cy="114.5" fill="#593055" opacity="0.2" r="5.1"/><g><path d="M63.8,120.8c-3.5,0-6.3-2.8-6.3-6.3s2.8-6.3,6.3-6.3s6.3,2.8,6.3,6.3S67.3,120.8,63.8,120.8z M63.8,110.7    c-2.1,0-3.8,1.7-3.8,3.8s1.7,3.8,3.8,3.8s3.8-1.7,3.8-3.8S65.9,110.7,63.8,110.7z" fill="#62355C"/></g><g><path d="M81.3,125.2H46.2c-9,0-16.2-7.3-16.2-16.2V19c0-9,7.3-16.2,16.2-16.2h35.1c9,0,16.2,7.3,16.2,16.2v90    C97.6,118,90.3,125.2,81.3,125.2z M46.2,5.2c-7.6,0-13.8,6.2-13.8,13.8v90c0,7.6,6.2,13.8,13.8,13.8h35.1    c7.6,0,13.8-6.2,13.8-13.8V19c0-7.6-6.2-13.8-13.8-13.8H46.2z" fill="#62355C"/></g><g><path d="M39.2,22.8h49.2c1.6,0,2.9,1.3,2.9,2.9v76.6c0,1.6-1.3,2.9-2.9,2.9H39.2c-1.6,0-2.9-1.3-2.9-2.9V25.7    C36.3,24.1,37.6,22.8,39.2,22.8z" fill="#FFFFFF"/></g><g><path d="M82.7,70.7H44.8c-0.6,0-1.1,0.5-1.1,1.1v3.2c0,0.6,0.5,1.1,1.1,1.1l1.6,0.1l2.3,17    c0.2,1.3,1.3,2.3,2.6,2.3h24.8c1.3,0,2.4-1,2.6-2.3l2.3-17l1.6-0.1c0.6,0,1.1-0.5,1.1-1.1v-3.2C83.8,71.2,83.3,70.7,82.7,70.7z" fill="#EC7BB0"/></g><g><path d="M82.7,69.5L82.7,69.5H44.9h-0.1c-1.3,0-2.3,1-2.3,2.3v0.1v3v0.1c0,1.3,1,2.3,2.2,2.3c0,0,0,0,0,0l0.6,0    l2.2,16c0.2,1.9,1.9,3.4,3.9,3.4h24.8c2,0,3.6-1.5,3.8-3.4l2.2-16l0.5,0c1.3,0,2.3-1,2.3-2.3v-0.1v-3v-0.1    C85,70.5,84,69.5,82.7,69.5z M45,72h37.5v2.8H45V72z M77.6,93c-0.1,0.7-0.7,1.2-1.4,1.2H51.4c-0.7,0-1.3-0.5-1.4-1.2l-2.1-15.7    h31.9L77.6,93z" fill="#62355C"/><g><path d="M53.8,74c-0.2,0-0.4,0-0.6-0.1c-0.6-0.3-0.9-1.1-0.6-1.7l6-11.9c0.3-0.6,1.1-0.9,1.7-0.6     c0.6,0.3,0.9,1.1,0.6,1.7l-6,11.9C54.7,73.8,54.2,74,53.8,74z" fill="#62355C"/></g><g><path d="M73.8,74c-0.5,0-0.9-0.3-1.1-0.7l-6-11.9c-0.3-0.6-0.1-1.4,0.6-1.7c0.6-0.3,1.4-0.1,1.7,0.6l6,11.9     c0.3,0.6,0.1,1.4-0.6,1.7C74.1,74,73.9,74,73.8,74z" fill="#62355C"/></g></g><g><path d="M88.2,106.5H39.3c-2.3,0-4.2-1.9-4.2-4.2V25.7c0-0.7,0.6-1.2,1.2-1.2s1.2,0.6,1.2,1.2v76.5    c0,1,0.8,1.8,1.8,1.8h48.9c1,0,1.8-0.8,1.8-1.8V25.7c0-0.7,0.6-1.2,1.2-1.2s1.2,0.6,1.2,1.2v76.5    C92.5,104.6,90.6,106.5,88.2,106.5z" fill="#62355C"/></g><g><g><path d="M69.2,23.5H58.8l-2.6,22.5c0,4.3,3.5,7.8,7.8,7.8s7.8-3.5,7.8-7.8L69.2,23.5z" fill="#65C5B4"/></g><g><path d="M48.3,23.5l-7.8,22.5c0,4.3,3.5,7.8,7.8,7.8s7.8-3.5,7.8-7.8l2.6-22.5H48.3z" fill="#FFFFFF"/><path d="M48.4,55.1c-5,0-9.1-4.1-9.1-9.1c0-0.1,0-0.3,0.1-0.4l7.8-22.5c0.2-0.5,0.6-0.8,1.2-0.8h10.4     c0.4,0,0.7,0.2,0.9,0.4c0.2,0.3,0.3,0.6,0.3,1l-2.6,22.5C57.4,51.1,53.4,55.1,48.4,55.1z M41.8,46.3c0.1,3.5,3,6.4,6.6,6.4     c3.6,0,6.6-2.9,6.6-6.6c0,0,0-0.1,0-0.1l2.4-21.2h-8.1L41.8,46.3z" fill="#FFFFFF"/></g><g><path d="M37.9,23.5L25,46.1c0,4.3,3.5,7.8,7.8,7.8s7.8-3.5,7.8-7.8l7.8-22.5H37.9z" fill="#65C5B4"/></g><g><path d="M79.7,23.5H69.2l2.6,22.5c0,4.3,3.5,7.8,7.8,7.8c4.3,0,7.8-3.5,7.8-7.8L79.7,23.5z" fill="#FFFFFF"/><path d="M79.6,55.1c-5,0-9-4-9.1-9L68,23.7c0-0.4,0.1-0.7,0.3-1c0.2-0.3,0.6-0.4,0.9-0.4h10.4     c0.5,0,1,0.3,1.2,0.8l7.8,22.5c0,0.1,0.1,0.3,0.1,0.4C88.7,51.1,84.6,55.1,79.6,55.1z M70.6,24.8L73,45.9c0,0,0,0.1,0,0.1     c0,3.6,2.9,6.6,6.6,6.6c3.5,0,6.4-2.8,6.6-6.4l-7.4-21.5H70.6z" fill="#FFFFFF"/></g><g><path d="M90.1,23.5H79.7l7.8,22.5c0,4.3,3.5,7.8,7.8,7.8s7.8-3.5,7.8-7.8L90.1,23.5z" fill="#65C5B4"/></g><g><path d="M64,55.1c-5,0-9.1-4.1-9.1-9.1c0,0,0-0.1,0-0.1l2.6-22.5c0.1-0.6,0.6-1.1,1.2-1.1h10.4     c0.6,0,1.2,0.5,1.2,1.1L73,45.9c0,0,0,0.1,0,0.1C73.1,51.1,69,55.1,64,55.1z M57.4,46.1c0,3.6,3,6.5,6.6,6.5s6.5-2.9,6.6-6.5     l-2.5-21.4h-8.2L57.4,46.1z" fill="#62355C"/></g><g><path d="M48.4,55.1c-5,0-9.1-4.1-9.1-9.1c0-0.1,0-0.3,0.1-0.4l7.8-22.5c0.2-0.5,0.6-0.8,1.2-0.8h10.4     c0.4,0,0.7,0.2,0.9,0.4c0.2,0.3,0.3,0.6,0.3,1l-2.6,22.5C57.4,51.1,53.4,55.1,48.4,55.1z M41.8,46.3c0.1,3.5,3,6.4,6.6,6.4     c3.6,0,6.6-2.9,6.6-6.6c0,0,0-0.1,0-0.1l2.4-21.2h-8.1L41.8,46.3z" fill="#62355C"/></g><g><path d="M32.8,55.1c-5,0-9.1-4.1-9.1-9.1c0-0.2,0.1-0.4,0.2-0.6l12.1-21.5c0-0.1,0.1-0.1,0.1-0.2     c0.8-0.9,1.9-1.5,3.2-1.5h9.1c0.4,0,0.8,0.2,1,0.5c0.2,0.3,0.3,0.8,0.2,1.1l-7.7,22.4C41.7,51.2,37.7,55.1,32.8,55.1z M26.2,46.4     c0.2,3.5,3,6.2,6.5,6.2c3.6,0,6.6-2.9,6.6-6.6c0-0.1,0-0.3,0.1-0.4l7.2-20.9h-7.3c-0.5,0-0.9,0.2-1.2,0.5L26.2,46.4z" fill="#62355C"/></g><g><path d="M79.6,55.1c-5,0-9-4-9.1-9L68,23.7c0-0.4,0.1-0.7,0.3-1c0.2-0.3,0.6-0.4,0.9-0.4h10.4     c0.5,0,1,0.3,1.2,0.8l7.8,22.5c0,0.1,0.1,0.3,0.1,0.4C88.7,51.1,84.6,55.1,79.6,55.1z M70.6,24.8L73,45.9c0,0,0,0.1,0,0.1     c0,3.6,2.9,6.6,6.6,6.6c3.5,0,6.4-2.8,6.6-6.4l-7.4-21.5H70.6z" fill="#62355C"/></g><g><path d="M95.2,55.1c-4.9,0-8.9-3.9-9.1-8.8l-7.7-22.4c-0.1-0.4-0.1-0.8,0.2-1.1c0.2-0.3,0.6-0.5,1-0.5h9.1     c1.2,0,2.4,0.5,3.2,1.5c0.1,0.1,0.1,0.1,0.1,0.2l12.1,21.5c0.1,0.2,0.2,0.4,0.2,0.6C104.3,51.1,100.2,55.1,95.2,55.1z M81.4,24.8     l7.2,20.9c0,0.1,0.1,0.3,0.1,0.4c0,3.6,2.9,6.6,6.6,6.6c3.5,0,6.4-2.8,6.5-6.2L89.9,25.3c-0.3-0.3-0.7-0.5-1.2-0.5H81.4z" fill="#62355C"/></g><polygon fill="#593055" opacity="0.2" points="37.8,23.5 90.1,23.5 95.2,31.3   "/><path d="M71.8,46.1c0,4.3-3.5,7.8-7.8,7.8s-7.8-3.5-7.8-7.8H71.8z" fill="#593055" opacity="0.2"/><path d="M56.2,46.1c0,4.3-3.5,7.8-7.8,7.8s-7.8-3.5-7.8-7.8H56.2z" fill="#593055" opacity="0.2"/><path d="M40.6,46.1c0,4.3-3.5,7.8-7.8,7.8S25,50.4,25,46.1H40.6z" fill="#593055" opacity="0.2"/><path d="M87.4,46.1c0,4.3-3.5,7.8-7.8,7.8s-7.8-3.5-7.8-7.8H87.4z" fill="#593055" opacity="0.2"/><path d="M103,46.1c0,4.3-3.5,7.8-7.8,7.8s-7.8-3.5-7.8-7.8H103z" fill="#593055" opacity="0.2"/></g><g><path d="    M66.5,99.9" fill="none" stroke="#404243" stroke-linecap="round" stroke-linejoin="round" stroke-miterlimit="10" stroke-width="2.5"/></g><g><circle cx="55.3" cy="13.4" fill="#62355C" r="1.5"/></g><g><path d="M73,14.7H60.4c-0.7,0-1.2-0.6-1.2-1.2s0.6-1.2,1.2-1.2H73c0.7,0,1.2,0.6,1.2,1.2S73.7,14.7,73,14.7z" fill="#62355C"/></g><g><path d="    M66.5,81.4" fill="none" stroke="#404243" stroke-linecap="round" stroke-linejoin="round" stroke-miterlimit="10" stroke-width="2.5"/></g></g></svg>